# xmcd
#
# Track frame offsets: 
#        150
#        17288
#        40261
#        54642
#        72014
#        85640
#        99470
#        112492
#        128536
#        139984
#        167578
#        185529
#        198912
#        219126
#        234469
#
# Disc length: 3337 seconds
#
# Revision: 0
# Processed by: cddbd v1.4PL0 Copyright (c) Steve Scherf et al.
# Submitted via: ExactAudioCopy v0.95a3
#
DISCID=c40d070f
DTITLE=New Riders of the Purple Sage - Worcester, MA 4-4-73 Disc 1
DYEAR=2003
DGENRE=Country
TTITLE0=I Don't Know You
TTITLE1=Lochinvar
TTITLE2=Rainbow
TTITLE3=It's Alright With Me
TTITLE4=Sailin'
TTITLE5=Whatcha Gonna Do
TTITLE6=California Day
TTITLE7=Linda
TTITLE8=Groupie
TTITLE9=One Too Many Stories
TTITLE10=Contract
TTITLE11=Teardrops In My Eyes
TTITLE12=Long Black Veil
TTITLE13=You Ain't Woman Enough
TTITLE14=Whiskey
EXTD=
EXTT0=
EXTT1=
EXTT2=
EXTT3=
EXTT4=
EXTT5=
EXTT6=
EXTT7=
EXTT8=
EXTT9=
EXTT10=
EXTT11=
EXTT12=
EXTT13=
EXTT14=
PLAYORDER=
